<svg width="32" height="32" viewBox="0 0 32 32" fill="none" xmlns="http://www.w3.org/2000/svg">
<path d="M26.3723 7.5563L6.75498 27.0017C6.26276 27.4896 5.43717 27.4632 4.91214 26.9428C4.38711 26.4224 4.36048 25.604 4.85269 25.1161L24.47 5.67068C24.9622 5.18277 25.7878 5.20917 26.3128 5.72961C26.8379 6.25004 26.8645 7.06839 26.3723 7.5563Z" fill="white"/>
<path d="M24.47 27.2149L4.85266 7.7695C4.36044 7.2816 4.38708 6.46324 4.91211 5.94281C5.43714 5.42238 6.26273 5.39598 6.75495 5.88388L26.3723 25.3293C26.8645 25.8172 26.8378 26.6356 26.3128 27.156C25.7878 27.6764 24.9622 27.7028 24.47 27.2149Z" fill="white"/>
</svg>
