<svg width="176" height="87" viewBox="0 0 176 87" fill="none" xmlns="http://www.w3.org/2000/svg">
<g clip-path="url(#clip0_116_8)">
<path d="M154.1 86.0002H166.8C171.7 86.0002 175.8 82.0002 175.8 77.0002V74.7002C175.8 69.8002 171.8 65.7002 166.8 65.7002H154.1C149.2 65.7002 145.1 69.7002 145.1 74.7002V77.0002C145.1 82.0002 149.1 86.0002 154.1 86.0002Z" fill="white"/>
<path fill-rule="evenodd" clip-rule="evenodd" d="M153.2 0.5C154.2 0.5 155.1 1 155.5 1.9C155.7 2.3 155.8 2.7 155.8 3.2H157.4C158.4 3.2 159.3 3.7 159.7 4.6C160.2 5.5 160.1 6.5 159.6 7.3L144.4 29.8L142.6 38.9C143.9 38.9 144.9 39.8 145.2 41L145.3 41.5H146.8C148.1 41.5 149.1 42.4 149.4 43.6V43.8L151.6 40.1C152.1 39.3 152.9 38.8 153.9 38.8H162.8C163.6 38.8 164.3 39.1 164.8 39.8C165.2 40.3 165.4 40.9 165.4 41.5H167C167.8 41.5 168.5 41.8 169 42.5C169.5 43.1 169.7 43.9 169.6 44.7L164.3 72C164.1 73.3 163 74.1 161.7 74.1H159.6C159.8 74.3 160 74.6 160.2 74.9C160.6 75.8 160.5 76.8 159.8 77.6V77.7L159.6 78.7C159.5 79.2 159.3 79.7 159 80.1C159.1 80.6 159.1 81.1 158.9 81.6L158.6 82.8C158.7 83.5 158.6 84.1 158.2 84.7C157.7 85.5 156.9 85.9 156 85.9H153.8C153.6 85.9 153.5 85.9 153.3 85.9C153.1 85.9 153 85.9 152.8 85.9H150.6C150.5 85.9 150.3 85.9 150.2 85.9C150.1 85.9 149.9 85.9 149.8 85.9H147.6C147.5 85.9 147.5 85.9 147.4 85.9C147.3 85.9 147.2 85.9 147.2 85.9H145C144.9 85.9 144.9 85.9 144.8 85.9C144.4 86 144.1 86 143.7 86C143 86 142.4 85.9 141.8 85.6C141.4 85.8 141 85.9 140.6 85.9H138.4C138.1 85.9 137.8 85.9 137.5 85.8C137.2 85.9 136.9 85.9 136.6 85.9H134.4C134.3 85.9 134.1 85.9 134 85.9C133.9 85.9 133.7 85.9 133.6 85.9H131.4C131 85.9 130.6 85.8 130.3 85.7H130.2C129.5 85.9 128.8 86 128.1 86C127.4 86 126.7 85.9 126 85.7C126 85.7 125.9 85.7 125.9 85.6C125.6 85.7 125.2 85.8 124.8 85.8H122.9C122.7 85.8 122.6 85.8 122.4 85.8C122.2 85.8 122.1 85.8 121.9 85.8H120.7C120.5 85.8 120.4 85.8 120.2 85.8C120 85.8 119.9 85.8 119.7 85.8H117.8C117.4 85.8 117 85.7 116.7 85.6H116.6C115.9 85.8 115.2 85.9 114.5 85.9C113.8 85.9 113.1 85.8 112.4 85.6C112.4 85.6 112.3 85.6 112.3 85.5C112 85.6 111.6 85.7 111.2 85.7H109C108.9 85.7 108.7 85.7 108.6 85.7C108.5 85.7 108.3 85.7 108.2 85.7H106C105.9 85.7 105.7 85.7 105.6 85.7C105.5 85.7 105.3 85.7 105.2 85.7H103.2C102.9 85.7 102.7 85.7 102.4 85.6C102.2 85.7 101.9 85.7 101.6 85.7H99.5001C99.4001 85.7 99.2001 85.7 99.1001 85.7C99.0001 85.7 98.8001 85.7 98.7001 85.7H90.4001C89.9001 85.7 89.4001 85.6 89.0001 85.3C88.6001 85.6 88.1001 85.7 87.6001 85.7H85.6001C85.3001 85.7 85.1001 85.7 84.8001 85.6C84.3001 86 84.1001 86 83.8001 86H81.7001C81.6001 86 81.4001 86 81.3001 86C81.2001 86 81.0001 86 80.9001 86H78.7001C78.3001 86 78.0001 85.9 77.7001 85.8H77.6001C76.9001 86 76.1001 86 75.4001 86H72.8001C72.7001 86 72.5001 86 72.4001 86C72.3001 86 72.1001 86 72.0001 86H69.8001C69.7001 86 69.5001 86 69.4001 86C69.3001 86 69.1001 86 69.0001 86H66.8001C66.4001 86 66.1001 85.9 65.8001 85.8H65.7001C64.9001 86 64.1001 86 63.4001 86H60.8001C60.7001 86 60.5001 86 60.4001 86C60.3001 86 60.2001 86 60.0001 86H57.8001C57.4001 86 57.1001 85.9 56.8001 85.8C56.7001 85.8 56.7001 85.8 56.6001 85.8C55.9001 86 55.1001 86 54.4001 86H54.0001C53.9001 86 53.9001 86 53.8001 86C53.7001 86 53.7001 86 53.6001 86H51.6001C51.3001 86 51.1001 86 50.8001 85.9C50.6001 86 50.3001 86 50.1001 86H48.0001C47.6001 86 47.2001 85.9 46.8001 85.7C46.1001 85.9 45.4001 86 44.6001 86C44.2001 86 43.8001 86 43.4001 86H43.3001C42.7001 85.9 42.1001 85.7 41.6001 85.4C41.3001 85.5 41.1001 85.7 40.8001 85.8C40.1001 86 39.4001 86.1 38.7001 86.1C38.0001 86.1 37.3001 86 36.6001 85.8C36.5001 85.8 36.5001 85.8 36.4001 85.7C36.1001 85.9 35.7001 85.9 35.3001 85.9H33.2001C33.1001 85.9 32.9001 85.9 32.8001 85.9C32.7001 85.9 32.5001 85.9 32.4001 85.9H31.0001C30.8001 85.9 30.7001 85.9 30.6001 85.9C30.5001 85.9 30.3001 85.9 30.2001 85.9H28.1001C27.3001 85.9 26.5001 85.5 26.0001 84.9C25.6001 84.4 25.4001 83.8 25.4001 83.2H23.8001C23.0001 83.2 22.2001 82.8 21.7001 82.2C21.2001 81.5 21.0001 80.8 21.2001 79.9L23.4001 70.9C23.5001 70.5 23.7001 70.1 24.0001 69.8C23.8001 69.3 23.7001 68.7 23.8001 68.2L29.2001 41C29.3001 40.5 29.5001 40 29.9001 39.7C27.4001 40.7 24.7001 41.1 21.9001 41.1C17.8001 41.1 13.8001 40.3 10.1001 38.5C8.90008 37.9 7.80008 37.3 6.80008 36.5C6.50008 36.3 6.20008 36.1 5.90008 35.8C4.70008 35.2 3.60008 34.6 2.60008 33.8C2.10008 33.4 1.60008 33 1.10008 32.7C7.80821e-05 31.9 -0.299922 30.3 0.500078 29.1L5.90008 21C6.20008 20.6 6.50008 20.3 6.90008 20.1C5.90008 18.6 5.30008 16.9 5.30008 15C5.00008 8.8 10.4001 2.8 16.2001 1C20.6001 -0.4 26.3001 -0.2 30.8001 0.8C32.7001 1.2 34.8001 2.3 36.6001 3.4L36.8001 2.3C37.0001 1 38.1001 0.2 39.4001 0.2H49.7001C50.5001 0.2 51.2001 0.5 51.7001 1.2C52.1001 1.7 52.3001 2.3 52.3001 2.9H53.9001C54.7001 2.9 55.4001 3.2 55.9001 3.9C56.0001 4 56.1001 4.2 56.2001 4.3L56.6001 2.4C56.8001 1.1 57.9001 0.3 59.2001 0.3H69.5001C70.3001 0.3 71.0001 0.6 71.5001 1.3C71.6001 1.4 71.6001 1.5 71.7001 1.5C72.2001 0.8 73.0001 0.3 73.9001 0.3H84.2001C85.0001 0.3 85.7001 0.6 86.2001 1.3C86.3001 1.4 86.3001 1.5 86.4001 1.5C86.9001 0.8 87.7001 0.3 88.6001 0.3H97.0001C98.0001 0.3 98.9001 0.8 99.3001 1.7L100 3H101.2C102.2 3 103.1 3.5 103.5 4.4L105.6 8.4L106.8 2.4C107 1.1 108.1 0.3 109.4 0.3H118.6C119 0.3 119.4 0.4 119.8 0.6C120 0.6 120.2 0.5 120.3 0.5H130.6C131.8 0.5 132.8 1.2 133.1 2.4L133.3 3.2H134.8C136 3.2 137 3.9 137.3 5.1L137.6 6L140.5 1.7C141 1 141.8 0.5 142.7 0.5H153.2Z" fill="white"/>
<path fill-rule="evenodd" clip-rule="evenodd" d="M39.3001 2.89985L33.0001 35.6998H43.3001L45.6001 23.7998H55.1001L52.7001 35.5998H63.0001L69.4001 2.89985H59.2001L56.7001 15.5998H47.2001L49.7001 2.89985H39.3001ZM67.6001 35.5998H77.8001L84.2001 2.89985H73.9001L67.6001 35.5998ZM88.6001 2.89985L82.2001 35.6998H91.6001L94.8001 19.0998L103.8 35.5998H112.5L118.8 2.89985H109.6L106.2 19.9998L97.1001 2.89985H88.6001ZM137.6 25.9998L153.1 3.09985H142.8L141.8 4.59985L134.4 15.4998L130.7 3.09985H120.4L127.3 25.9998L125.4 35.5998H135.7L137.6 25.9998ZM21.7001 25.7998C21.3001 27.9998 18.3001 27.8998 14.5001 26.5998C10.7001 25.2998 8.0001 22.4998 8.0001 22.4998L2.6001 30.5998C3.3001 31.0998 8.3001 35.8998 17.6001 35.7998C27.9001 35.6998 32.1001 29.6998 32.4001 23.6998C32.7001 17.6998 28.4001 16.5998 24.9001 15.3998C21.4001 14.1998 18.5001 13.7998 18.7001 12.0998C18.9001 10.3998 21.0001 10.1998 24.3001 11.1998C27.6001 12.1998 30.9001 14.3998 30.9001 14.3998L36.2001 6.29985C36.2001 6.29985 32.9001 3.89985 30.1001 3.29985C27.3001 2.69985 21.6001 2.09985 17.0001 3.49985C12.3001 4.99985 7.7001 9.89985 7.8001 14.8998C8.0001 19.8998 12.1001 21.2998 15.0001 22.2998C17.8001 23.2998 22.1001 23.5998 21.7001 25.7998Z" fill="#FFD300"/>
<path fill-rule="evenodd" clip-rule="evenodd" d="M59.5002 68.8002H67.9002C69.7002 59.7002 71.5002 50.6002 73.2002 41.5002H64.7002C62.9002 50.6002 61.2002 59.7002 59.5002 68.8002ZM89.9002 60.7002L91.1002 54.4002H98.4002L96.3002 65.5002C96.3002 65.5002 91.5002 68.9002 84.1002 68.9002C76.7002 68.9002 72.2002 63.7002 72.8002 57.1002C73.4002 50.5002 77.4002 43.8002 86.3002 41.7002C90.8002 40.7002 94.3002 41.6002 96.8002 42.8002C99.3002 44.0002 100.6 45.4002 100.6 45.4002L94.6002 51.5002C94.6002 51.5002 91.8002 48.1002 87.8002 48.8002C83.8002 49.4002 81.9002 53.3002 81.6002 55.9002C81.4002 58.6002 83.1002 63.7002 89.9002 60.7002ZM150.1 68.8002H157.5L162.8 41.5002H153.9L145.4 55.7002L142.6 41.5002H133.6L128.4 68.8002H135.8L138.7 53.7002L140.8 65.8002H146.4L153.1 53.9002L150.1 68.8002ZM114.2 42.0002C121.7 42.0002 127.8 48.1002 127.8 55.6002C127.8 63.1002 121.7 69.2002 114.2 69.2002C106.7 69.2002 100.6 63.1002 100.6 55.6002C100.6 48.1002 106.7 42.0002 114.2 42.0002ZM48.4002 68.8002H55.8002L61.1002 41.5002H52.2002L43.7002 55.7002L40.9002 41.5002H31.9002L26.7002 68.8002H34.1002L37.0002 53.7002L39.0002 65.9002H44.6002L51.3002 54.0002L48.4002 68.8002Z" fill="#040007"/>
<path fill-rule="evenodd" clip-rule="evenodd" d="M114.6 48.9002V49.0002C114.5 49.4002 114.4 49.7002 114.3 49.9002L113.5 52.8002H111.6L113.8 49.9002C113.9 49.7002 114.1 49.6002 114.2 49.4002C114.4 49.2002 114.5 49.1002 114.6 48.9002ZM114.3 47.4002L110 52.9002L109.6 54.7002H113.1L112.6 56.9002H114.4L114.9 54.7002H116L116.4 52.9002H115.3L116.6 47.4002H114.3ZM119.7 50.1002L114.2 61.1002H115.4L120.9 50.1002H119.7ZM119.8 55.5002L119.3 57.7002H122.8L118 65.0002H120.3L126.1 55.8002L126.2 55.5002H119.8ZM109.7 50.1002C109.8 49.3002 109.6 48.6002 109.1 48.0002C108.6 47.5002 108 47.2002 107.1 47.2002C106.2 47.2002 105.4 47.5002 104.8 48.1002C104.2 48.7002 103.8 49.6002 103.6 50.7002H105.5C105.6 50.2002 105.7 49.9002 105.9 49.6002C106.1 49.3002 106.4 49.2002 106.7 49.2002C107 49.2002 107.2 49.3002 107.3 49.5002C107.4 49.7002 107.5 49.9002 107.5 50.2002C107.5 50.5002 107.4 50.7002 107.2 51.1002C107 51.4002 106.7 51.8002 106.2 52.4002L102.3 57.0002H108.3L108.8 54.9002H107.1C107 54.9002 106.9 54.9002 106.8 54.9002C106.6 54.9002 106.5 54.9002 106.3 54.9002L107.5 53.7002C108.2 53.0002 108.7 52.4002 109.1 51.8002C109.4 51.3002 109.6 50.7002 109.7 50.1002Z" fill="#FFD300"/>
<path d="M151.7 80.7001H149.5C149.4 80.5001 149.4 80.2001 149.5 79.8001L149.9 78.2001C150 77.7001 149.8 77.4001 149.4 77.4001L148.6 80.6001H146.4L147.2 77.4001C146.8 77.4001 146.5 77.7001 146.4 78.2001L146 79.8001C145.9 80.3001 145.7 80.6001 145.5 80.7001H143.3C143.5 80.5001 143.7 80.1001 143.8 79.6001L144.1 78.3001C144.3 77.7001 144.7 77.3001 145.6 77.0001C145.8 76.9001 146.1 76.9001 146.4 76.8001C146.3 76.8001 146 76.7001 145.7 76.6001C145.4 76.4001 145.2 76.3001 145.1 76.2001C144.9 76.0001 144.8 75.7001 144.9 75.3001L145.1 74.3001C145.2 73.8001 145.2 73.5001 145.1 73.2001H147.3C147.4 73.4001 147.4 73.7001 147.3 74.1001L147 75.4001C146.9 75.9001 147 76.2001 147.4 76.2001L148.1 73.3001H150.3L149.6 76.2001C150.1 76.2001 150.4 75.9001 150.5 75.4001L150.8 74.1001C150.9 73.6001 151.1 73.3001 151.3 73.2001H153.5C153.3 73.4001 153.1 73.8001 153 74.3001L152.8 75.3001C152.7 75.7001 152.5 76.0001 152.2 76.2001C152.1 76.3001 151.8 76.4001 151.4 76.6001C151.1 76.7001 150.9 76.8001 150.6 76.8001C150.7 76.8001 150.9 76.9001 151.3 77.0001C152 77.2001 152.3 77.7001 152.1 78.3001L151.8 79.6001C151.6 80.1001 151.6 80.4001 151.7 80.7001ZM141.5 77.2001C141.1 77.5001 140.8 77.7001 140.7 77.9001C140.6 78.1001 140.5 78.3001 140.4 78.7001C140.3 79.1001 140.3 79.3001 140.3 79.4001C140.3 79.5001 140.4 79.6001 140.6 79.6001C140.7 79.6001 140.8 79.6001 140.9 79.5001C141 79.4001 141 79.2001 141.1 78.8001L141.5 77.2001ZM141.1 76.2001H139L139.1 75.7001C139.2 75.1001 139.4 74.7001 139.6 74.4001C139.8 74.1001 140.1 73.8001 140.6 73.6001C141.1 73.4001 141.6 73.2001 142.2 73.2001C143 73.2001 143.5 73.3001 143.8 73.6001C144.1 73.9001 144.3 74.2001 144.2 74.6001C144.2 75.0001 144 75.8001 143.7 77.0001L142.8 80.7001H140.6L140.8 80.0001C140.6 80.3001 140.4 80.5001 140.1 80.6001C139.9 80.7001 139.6 80.8001 139.3 80.8001C138.9 80.8001 138.6 80.7001 138.3 80.5001C138 80.3001 138 79.8001 138.2 79.0001L138.4 78.4001C138.5 77.8001 138.7 77.5001 138.9 77.3001C139.1 77.1001 139.6 76.9001 140.4 76.6001C141.2 76.3001 141.7 76.1001 141.7 76.0001C141.8 75.9001 141.9 75.7001 141.9 75.4001C142 75.0001 142 74.8001 142 74.6001C142 74.5001 141.9 74.4001 141.8 74.4001C141.6 74.4001 141.5 74.4001 141.5 74.5001C141.4 74.6001 141.4 74.9001 141.3 75.3001L141.1 76.2001ZM139.3 73.3001L138.9 74.9001H137.6L136.1 80.7001H134L135.5 74.9001H134.2L134.6 73.3001H139.3ZM132.2 80.7001H130L130.7 78.0001H129.9L129.2 80.7001H127L128.8 73.3001H131L130.3 76.0001H131.1L131.8 73.3001H134L132.2 80.7001ZM125.3 75.3001C125.4 74.9001 125.4 74.7001 125.4 74.6001C125.4 74.5001 125.3 74.5001 125.2 74.5001C125.1 74.5001 125 74.5001 124.9 74.6001C124.8 74.7001 124.7 74.9001 124.7 75.3001L123.9 78.6001C123.8 79.0001 123.8 79.2001 123.8 79.3001C123.8 79.4001 123.9 79.5001 124 79.5001C124.1 79.5001 124.2 79.5001 124.3 79.4001C124.4 79.3001 124.4 79.1001 124.5 78.8001L125.3 75.3001ZM127.4 75.9001L126.9 77.7001C126.7 78.4001 126.6 78.9001 126.4 79.2001C126.3 79.5001 126 79.8001 125.8 80.1001C125.5 80.4001 125.2 80.6001 124.8 80.7001C124.4 80.8001 124 80.9001 123.6 80.9001C123.1 80.9001 122.7 80.8001 122.4 80.7001C122.1 80.6001 121.9 80.4001 121.7 80.2001C121.6 80.0001 121.5 79.7001 121.5 79.4001C121.5 79.1001 121.6 78.6001 121.7 78.0001L122.2 76.1001C122.4 75.4001 122.6 74.9001 122.8 74.5001C123 74.1001 123.4 73.8001 123.8 73.6001C124.2 73.4001 124.8 73.2001 125.4 73.2001C125.9 73.2001 126.3 73.3001 126.6 73.4001C126.9 73.6001 127.2 73.7001 127.3 74.0001C127.4 74.2001 127.5 74.5001 127.5 74.7001C127.6 75.0001 127.5 75.4001 127.4 75.9001ZM120.3 80.7001H118.4L119.7 75.6001L117.5 80.7001H116.3L116.6 75.6001L115.3 80.7001H113.4L115.2 73.3001H118L117.7 77.4001L119.4 73.3001H122.2L120.3 80.7001ZM111.7 75.3001C111.8 74.9001 111.8 74.7001 111.8 74.6001C111.8 74.5001 111.7 74.5001 111.6 74.5001C111.5 74.5001 111.4 74.5001 111.3 74.6001C111.2 74.7001 111.1 74.9001 111.1 75.3001L110.3 78.6001C110.2 79.0001 110.2 79.2001 110.2 79.3001C110.2 79.4001 110.3 79.5001 110.4 79.5001C110.5 79.5001 110.6 79.5001 110.7 79.4001C110.8 79.3001 110.8 79.1001 110.9 78.8001L111.7 75.3001ZM113.8 75.9001L113.3 77.7001C113.1 78.4001 113 78.9001 112.8 79.2001C112.7 79.5001 112.4 79.8001 112.2 80.1001C112 80.4001 111.6 80.6001 111.2 80.7001C110.8 80.8001 110.4 80.9001 110 80.9001C109.5 80.9001 109.1 80.8001 108.8 80.7001C108.5 80.6001 108.3 80.4001 108.1 80.2001C108 80.0001 107.9 79.7001 107.9 79.4001C107.9 79.1001 108 78.6001 108.1 78.0001L108.6 76.1001C108.8 75.4001 109 74.9001 109.2 74.5001C109.4 74.1001 109.8 73.8001 110.2 73.6001C110.6 73.4001 111.2 73.2001 111.8 73.2001C112.3 73.2001 112.7 73.3001 113 73.4001C113.3 73.6001 113.6 73.7001 113.7 74.0001C113.8 74.2001 113.9 74.5001 113.9 74.7001C114 75.0001 113.9 75.4001 113.8 75.9001ZM106.7 80.7001H104.5L105.2 78.0001H104.4L103.7 80.7001H101.5L103.3 73.3001H105.5L104.8 76.0001H105.6L106.3 73.3001H108.5L106.7 80.7001ZM100.6 80.7001H98.6001L99.6001 76.7001L97.0001 80.7001H95.0001L96.8001 73.3001H98.8001L97.8001 77.3001L100.3 73.3001H102.4L100.6 80.7001ZM91.6001 79.1001H92.4001L93.9001 73.3001H96.1001L94.3001 80.7001H86.0001L87.8001 73.3001H90.0001L88.5001 79.1001H89.3001L90.8001 73.3001H93.0001L91.6001 79.1001ZM83.3001 71.1001H84.2001C84.1001 71.6001 83.8001 72.0001 83.5001 72.3001C83.1001 72.6001 82.7001 72.8001 82.2001 72.8001C81.7001 72.8001 81.4001 72.6001 81.2001 72.3001C81.0001 72.0001 81.0001 71.6001 81.1001 71.1001H82.0001C81.9001 71.6001 82.1001 71.9001 82.4001 71.9001C82.9001 71.9001 83.2001 71.6001 83.3001 71.1001ZM83.1001 80.7001H81.1001L82.1001 76.7001L79.5001 80.7001H77.4001L79.2001 73.3001H81.2001L80.2001 77.3001L82.7001 73.3001H84.8001L83.1001 80.7001ZM76.7001 80.7001H74.5001L76.3001 73.3001H78.5001L76.7001 80.7001ZM72.2001 78.3001L72.3001 78.0001C72.4001 77.6001 72.4001 77.4001 72.4001 77.3001C72.3001 77.2001 72.1001 77.2001 71.8001 77.2001L71.3001 79.2001C71.6001 79.2001 71.8001 79.2001 71.9001 79.1001C72.0001 78.9001 72.1001 78.7001 72.2001 78.3001ZM74.3001 78.6001C74.1001 79.3001 73.9001 79.8001 73.7001 80.1001C73.5001 80.4001 73.2001 80.6001 72.8001 80.6001C72.4001 80.7001 71.9001 80.7001 71.1001 80.7001H68.5001L70.3001 73.3001H72.5001L71.9001 75.8001H72.3001C73.0001 75.8001 73.5001 75.8001 73.9001 75.9001C74.2001 76.0001 74.4001 76.2001 74.5001 76.5001C74.6001 76.8001 74.6001 77.2001 74.4001 77.9001L74.3001 78.6001ZM67.8001 80.7001H65.6001L66.3001 78.0001H65.5001L64.8001 80.7001H62.6001L64.4001 73.3001H66.6001L65.9001 76.0001H66.7001L67.4001 73.3001H69.6001L67.8001 80.7001ZM60.1001 78.3001L60.2001 78.0001C60.3001 77.6001 60.3001 77.4001 60.3001 77.3001C60.2001 77.2001 60.0001 77.2001 59.7001 77.2001L59.2001 79.2001C59.5001 79.2001 59.7001 79.2001 59.8001 79.1001C59.9001 78.9001 60.0001 78.7001 60.1001 78.3001ZM62.3001 78.6001C62.1001 79.3001 61.9002 79.8001 61.7001 80.1001C61.5001 80.4001 61.2001 80.6001 60.8001 80.6001C60.4001 80.7001 59.9001 80.7001 59.1001 80.7001H56.5001L58.3001 73.3001H60.5001L60.0001 75.8001H60.4001C61.1001 75.8001 61.6001 75.8001 62.0001 75.9001C62.3001 76.0001 62.5001 76.2001 62.6001 76.5001C62.7001 76.8001 62.7001 77.2001 62.5001 77.9001L62.3001 78.6001ZM53.6001 80.7001L55.1001 74.9001H54.3001L53.4001 78.6001C53.2001 79.3001 53.0001 79.8001 52.8001 80.1001C52.6001 80.4001 52.3001 80.6001 51.9001 80.6001C51.5001 80.7001 51.0001 80.7001 50.2001 80.7001H49.8001L50.1001 79.5001C50.4001 79.5001 50.6001 79.5001 50.7001 79.4001C50.8001 79.3001 50.9001 79.1001 51.0001 78.7001L52.3001 73.4001H57.6001L55.8001 80.8001H53.6001V80.7001ZM49.4001 80.7001H47.4001L48.4001 76.7001L45.8001 80.7001H43.8001L45.6001 73.3001H47.6001L46.6001 77.3001L49.1001 73.3001H51.2001L49.4001 80.7001ZM43.1001 73.3001C44.2001 73.3001 44.6001 73.7001 44.5001 74.6001C44.4001 75.0001 44.3001 75.5001 44.2001 76.0001L43.8001 77.8001C43.6001 78.6001 43.4001 79.2001 43.2001 79.5001C42.7001 80.4001 41.7001 80.8001 40.5001 80.8001C40.0001 80.8001 39.7001 80.8001 39.6001 80.8001C39.3001 80.8001 39.1001 80.7001 38.9001 80.5001C38.6001 80.3001 38.5001 79.9001 38.4001 79.5001C38.4001 79.2001 38.5001 78.7001 38.6001 78.0001L39.7001 73.7001C39.9001 73.1001 40.2001 72.6001 40.7001 72.2001C41.2001 71.8001 41.8001 71.6001 42.4001 71.6001C42.7001 71.6001 43.1001 71.6001 43.6001 71.7001C44.1001 71.7001 44.4001 71.8001 44.6001 71.8001C44.8001 71.8001 45.0001 71.8001 45.1001 71.7001L44.8001 72.9001C44.6001 73.0001 44.5001 73.0001 44.3001 73.0001C44.1001 73.0001 43.8001 73.0001 43.5001 73.0001C43.1001 73.0001 42.9001 73.0001 42.7001 73.0001C42.4001 73.0001 42.2001 73.1001 42.0001 73.4001C42.0001 73.5001 41.9001 73.7001 41.8001 74.1001C42.2001 73.5001 42.7001 73.3001 43.1001 73.3001ZM41.1001 79.2001L42.0001 75.4001C42.1001 75.1001 42.1001 74.9001 42.1001 74.8001C42.1001 74.6001 42.0001 74.5001 41.9001 74.5001C41.7001 74.5001 41.6001 74.6001 41.5001 74.8001C41.5001 74.9001 41.4001 75.1001 41.3001 75.4001L40.4001 78.9001C40.3001 79.3001 40.4001 79.5001 40.6001 79.5001C40.9001 79.6001 41.1001 79.4001 41.1001 79.2001ZM36.2001 75.3001C36.3001 74.9001 36.3001 74.7001 36.3001 74.6001C36.3001 74.5001 36.2001 74.5001 36.1001 74.5001C36.0001 74.5001 35.9001 74.5001 35.8001 74.6001C35.7001 74.7001 35.6001 74.9001 35.6001 75.3001L34.8001 78.6001C34.7001 79.0001 34.7001 79.2001 34.7001 79.3001C34.7001 79.4001 34.8001 79.5001 34.9001 79.5001C35.0001 79.5001 35.1001 79.5001 35.2001 79.4001C35.3001 79.3001 35.3001 79.1001 35.4001 78.8001L36.2001 75.3001ZM38.3001 75.9001L37.9001 77.7001C37.7001 78.4001 37.6001 78.9001 37.4001 79.2001C37.3001 79.5001 37.0001 79.8001 36.8001 80.1001C36.6001 80.4001 36.2001 80.6001 35.8001 80.7001C35.4001 80.8001 35.0001 80.9001 34.6001 80.9001C34.1001 80.9001 33.7001 80.8001 33.4001 80.7001C33.1001 80.6001 32.9001 80.4001 32.7001 80.2001C32.6001 80.0001 32.5001 79.7001 32.5001 79.4001C32.5001 79.1001 32.6001 78.6001 32.7001 78.0001L33.2001 76.1001C33.4001 75.4001 33.6001 74.9001 33.8001 74.5001C34.0001 74.1001 34.4001 73.8001 34.8001 73.6001C35.2001 73.4001 35.8001 73.2001 36.4001 73.2001C36.9001 73.2001 37.3001 73.3001 37.6001 73.4001C37.9001 73.6001 38.2001 73.7001 38.3001 74.0001C38.4001 74.2001 38.5001 74.5001 38.5001 74.7001C38.5001 75.0001 38.4001 75.4001 38.3001 75.9001ZM33.4001 71.7001L31.2001 80.7001H29.1001L30.6001 74.6001L28.3001 80.7001H26.9001L27.5001 74.7001L26.0001 80.7001H23.9001L26.1001 71.7001H29.1001C29.1001 72.2001 29.0001 72.9001 28.9001 73.6001L28.7001 75.9001L30.3001 71.7001H33.4001Z" fill="#040007"/>
<path d="M163.5 73.3002L161.6 80.7002H159.9L157.7 76.7002L156.7 80.7002H154.7L156.6 73.3002H158.3L160.5 77.3002L161.5 73.3002H163.5ZM163.4 77.4002H167.1L166.8 78.6002H163L163.4 77.4002ZM167.1 73.4002C167.4 73.5002 167.6 73.7002 167.7 74.0002C167.8 74.3002 167.9 74.5002 167.9 74.8002C167.9 75.2002 167.8 75.5002 167.5 75.8002C167.3 76.1002 167 76.3002 166.6 76.5002C166.2 76.7002 165.9 76.7002 165.4 76.7002C165 76.7002 164.7 76.6002 164.4 76.5002C164.1 76.4002 163.9 76.2002 163.8 75.9002C163.7 75.7002 163.6 75.4002 163.6 75.1002C163.6 74.7002 163.7 74.4002 164 74.1002C164.2 73.8002 164.5 73.6002 164.9 73.4002C165.3 73.2002 165.6 73.2002 166.1 73.2002C166.5 73.2002 166.8 73.3002 167.1 73.4002ZM166.3 75.5002C166.5 75.3002 166.6 75.1002 166.6 74.9002C166.6 74.7002 166.6 74.6002 166.5 74.4002C166.4 74.3002 166.2 74.2002 166.1 74.2002C165.9 74.2002 165.7 74.3002 165.5 74.4002C165.3 74.6002 165.3 74.8002 165.2 75.0002C165.2 75.2002 165.2 75.3002 165.3 75.4002C165.4 75.5002 165.6 75.6002 165.7 75.6002C165.9 75.7002 166.1 75.7002 166.3 75.5002Z" fill="black"/>
<path d="M172.4 73.2998L170.6 80.6998H168.5L169.9 74.8998H168.6L169 73.2998H172.4Z" fill="black"/>
</g>
<defs>
<clipPath id="clip0_116_8">
<rect width="175.7" height="86.1" fill="white"/>
</clipPath>
</defs>
</svg>
